<mxfile host="app.diagrams.net" modified="2023-07-18T03:19:35.520Z" agent="Mozilla/5.0 (Windows NT 10.0; Win64; x64; rv:109.0) Gecko/20100101 Firefox/115.0" version="21.6.2" etag="Wk-yR-cXyW77ZFegN2oj" type="github">
  <diagram name="第 1 页" id="Tm4kAg7xbK1a2dkoDUqP">
    <mxGraphModel>
      <root>
        <mxCell id="0" />
        <mxCell id="1" parent="0" />
      </root>
    </mxGraphModel>
  </diagram>
</mxfile>
